<svg xmlns="http://www.w3.org/2000/svg" viewBox="0 0 380 128" role="img" aria-labelledby="title">
  <title id="title">Din</title>
  <rect width="128" height="128" rx="31" fill="#0F172A"/>
  <circle cx="37" cy="37" r="8" fill="#00D19A"/>
  <path d="M37 67v24h25" fill="none" stroke="#00D19A" stroke-width="12" stroke-linecap="round" stroke-linejoin="round"/>
  <path d="M62 37a27 27 0 0 1 0 54" fill="none" stroke="#00D19A" stroke-width="12" stroke-linecap="round"/>
  <path d="M164 25h37c31 0 52 17 52 39s-21 39-52 39h-37V25Zm25 20v38h12c16 0 27-7 27-19s-11-19-27-19h-12Z" fill="#0F172A"/>
  <path d="M271 48h23v55h-23V48Zm11.5-31a12 12 0 1 1 0 24 12 12 0 0 1 0-24Z" fill="#0F172A"/>
  <circle cx="282.5" cy="29" r="5" fill="#00D19A"/>
  <path d="M309 48h22v8c7-7 14-10 24-10 18 0 27 11 27 30v27h-23V79c0-9-4-14-12-14-9 0-15 6-15 17v21h-23V48Z" fill="#0F172A"/>
</svg>
